<?xml version="1.0" encoding="UTF-8"?>
<!DOCTYPE svg PUBLIC "-//W3C//DTD SVG 1.1//EN" "http://www.w3.org/Graphics/SVG/1.1/DTD/svg11.dtd">
<!-- Creator: CorelDRAW X6 -->
<svg xmlns="http://www.w3.org/2000/svg" xml:space="preserve" width="970px" height="970px" version="1.1" style="shape-rendering:geometricPrecision; text-rendering:geometricPrecision; image-rendering:optimizeQuality; fill-rule:evenodd; clip-rule:evenodd"
viewBox="0 0 182 182"
 xmlns:xlink="http://www.w3.org/1999/xlink">
 <defs>
  <style type="text/css">
   <![CDATA[
    .fil0 {fill:#0760FF}
    .fil1 {fill:#A1C057}
   ]]>
  </style>
 </defs>
 <g id="Layer_x0020_1">
  <metadata id="CorelCorpID_0Corel-Layer"/>
  <path class="fil0" d="M91 0c50,0 91,41 91,91 0,50 -41,91 -91,91 -50,0 -91,-41 -91,-91 0,-50 41,-91 91,-91zm0 8c46,0 83,37 83,83 0,46 -37,83 -83,83 -46,0 -83,-37 -83,-83 0,-46 37,-83 83,-83z"/>
  <polygon class="fil0" points="27,69 87,49 102,58 102,154 79,154 79,59 35,73 35,154 28,155 "/>
  <polygon class="fil1" points="43,81 71,71 71,86 43,93 "/>
  <polygon class="fil1" points="43,122 71,118 71,132 43,134 "/>
  <polygon class="fil1" points="44,142 71,140 71,154 44,154 "/>
  <polygon class="fil1" points="43,102 71,95 71,109 43,114 "/>
  <polygon class="fil0" points="62,46 121,25 138,40 138,147 150,147 150,154 115,154 115,34 62,51 "/>
 </g>
</svg>
