<?xml version="1.0" encoding="UTF-8"?>
<!DOCTYPE svg PUBLIC "-//W3C//DTD SVG 1.1//EN" "http://www.w3.org/Graphics/SVG/1.1/DTD/svg11.dtd">
<!-- Creator: CorelDRAW X6 -->
<svg xmlns="http://www.w3.org/2000/svg" xml:space="preserve" width="1400px" height="1400px" version="1.1" style="shape-rendering:geometricPrecision; text-rendering:geometricPrecision; image-rendering:optimizeQuality; fill-rule:evenodd; clip-rule:evenodd"
viewBox="0 0 235 235"
 xmlns:xlink="http://www.w3.org/1999/xlink">
 <defs>
  <style type="text/css">
   <![CDATA[
    .fil1 {fill:#A1C057}
    .fil0 {fill:url(#id0)}
   ]]>
  </style>
  <linearGradient id="id0" gradientUnits="userSpaceOnUse" x1="117.393" y1="62.0476" x2="117.393" y2="239.197">
   <stop offset="0" style="stop-color:#3CEBFF"/>
   <stop offset="1" style="stop-color:#065EFF"/>
  </linearGradient>
 </defs>
 <g id="Layer_x0020_1">
  <metadata id="CorelCorpID_0Corel-Layer"/>
  <g id="_178502952">
   <path class="fil0" d="M109 97c0,16 2,12 -4,25l-41 92c-1,3 -4,7 -5,10 -3,9 10,15 15,7 2,-3 8,-18 9,-21l68 0c1,3 7,18 9,20 5,8 18,3 15,-6l-9 -21c-4,-10 -41,-90 -41,-93 0,-4 0,-11 0,-15 0,-2 11,-6 8,-19 -4,-16 -28,-16 -32,0 -2,6 0,11 4,15 1,1 3,2 4,4zm-4 66l25 0 -12 -27 -13 27zm-14 32l54 0c-1,-2 -6,-16 -8,-16l-38 0c-2,0 -7,14 -8,16z"/>
   <path class="fil1" d="M192 0c-3,1 -3,1 -5,3 -5,8 8,13 19,32 17,30 16,67 -2,96 -4,7 -9,12 -14,17 -2,2 -6,5 -3,10 1,3 5,6 10,4 4,-1 6,-5 8,-7 1,-1 2,-3 4,-4 35,-42 34,-104 -3,-144 -3,-3 -8,-10 -14,-8z"/>
   <path class="fil1" d="M38 0c-5,2 -12,11 -16,16 -15,20 -23,43 -22,69 1,31 13,54 32,75 9,10 18,2 16,-5 -1,-4 -5,-6 -7,-9 -16,-19 -26,-38 -25,-67 1,-18 6,-34 14,-47 5,-7 8,-11 14,-17 10,-10 0,-17 -7,-15z"/>
   <path class="fil1" d="M63 23c-7,1 -18,19 -21,24 -14,29 -10,60 10,85 2,3 7,10 13,9 6,-1 10,-8 5,-13 -12,-13 -20,-28 -20,-47 1,-29 19,-41 21,-46 4,-6 -2,-13 -9,-12z"/>
   <path class="fil1" d="M170 23c-7,1 -9,9 -4,14 1,1 2,1 3,3 10,10 17,29 17,45 -1,17 -7,29 -16,40 -2,2 -4,3 -5,6 -3,6 3,12 9,11 7,-1 18,-19 21,-25 15,-31 9,-67 -16,-91 -2,-2 -4,-3 -8,-3z"/>
   <path class="fil1" d="M85 46c-4,2 -11,11 -13,16 -3,7 -5,15 -4,24 1,12 6,21 13,29 9,10 21,-2 13,-10 -6,-7 -11,-15 -9,-26 1,-9 4,-14 9,-19 6,-7 0,-17 -9,-14z"/>
   <path class="fil1" d="M146 46c-4,1 -7,3 -7,7 -1,8 13,11 12,31 -1,20 -16,21 -12,30 1,3 5,6 10,5 5,-1 11,-10 13,-15 9,-19 6,-38 -8,-54 -2,-2 -5,-5 -9,-4z"/>
  </g>
 </g>
</svg>
